<svg id="Layer_1" data-name="Layer 1" xmlns="http://www.w3.org/2000/svg" viewBox="0 0 36 24"><defs><style>.cls-1{fill:#fff;}</style></defs><path class="cls-1" d="M2.28,14a2,2,0,1,0-2-2A2,2,0,0,0,2.28,14Z"/><path class="cls-1" d="M33.84,10H10a1.85,1.85,0,0,0-1.85,1.85v.24A1.85,1.85,0,0,0,10,14H33.84a1.85,1.85,0,0,0,1.85-1.85v-.24A1.85,1.85,0,0,0,33.84,10Z"/><path class="cls-1" d="M33.84,19.86H2.16A1.85,1.85,0,0,0,.31,21.71V22a1.84,1.84,0,0,0,1.85,1.84H33.84A1.84,1.84,0,0,0,35.69,22v-.24A1.85,1.85,0,0,0,33.84,19.86Z"/><path class="cls-1" d="M33.84.21H2.16A1.84,1.84,0,0,0,.31,2.05v.24A1.85,1.85,0,0,0,2.16,4.14H33.84a1.85,1.85,0,0,0,1.85-1.85V2.05A1.84,1.84,0,0,0,33.84.21Z"/></svg>